<svg width="84" height="84" viewBox="0 0 84 84" fill="none" xmlns="http://www.w3.org/2000/svg">
<g clip-path="url(#clip0_93_23)">
<path d="M26.2571 0H35.2801V3.773H30.0301V7.546H35.2801V11.319H26.2571V0ZM37.0826 0H46.1091V3.283H40.8591V3.9375H46.1091V11.4835H37.0826V8.0395H42.3326V7.3815H37.0826V0ZM47.9151 0H56.9346V3.283H51.6846V3.9375H56.9346V11.4835H47.9151V8.0395H53.1651V7.3815H47.9151V0Z" fill="white"/>
<path fill-rule="evenodd" clip-rule="evenodd" d="M41.9685 84L17.6645 77.252L10.5 16.5095H73.5L66.339 77.245L41.9685 84ZM24.6645 44.0055L25.333 51.4535H51.1525L50.288 61.1135L41.979 63.3605H41.972L33.677 61.1205L33.145 55.181H25.6655L26.7085 66.878L41.9685 71.113L57.253 66.878L59.115 46.004L59.297 44.0055L60.641 28.924H23.324L24.003 36.3755H52.479L51.8 44.0055H24.6645Z" fill="white"/>
</g>
<defs>
<clipPath id="clip0_93_23">
<rect width="84" height="84" fill="white"/>
</clipPath>
</defs>
</svg>
