<svg width="49" height="70" viewBox="0 0 49 70" fill="none" xmlns="http://www.w3.org/2000/svg">
<mask id="mask0_93_44" style="mask-type:luminance" maskUnits="userSpaceOnUse" x="0" y="0" width="49" height="70">
<path d="M0 0H48.4505V70H0V0Z" fill="white"/>
</mask>
<g mask="url(#mask0_93_44)">
<path d="M43.0989 24.2795C45.3389 22.5558 46.9835 20.1746 47.8024 17.4694C48.6213 14.7642 48.5734 11.8707 47.6655 9.19405C46.7576 6.51745 45.0352 4.19189 42.7395 2.54319C40.4438 0.894487 37.6898 0.00523153 34.8634 0H13.5414C10.7192 0.0118846 7.97082 0.90276 5.6783 2.54878C3.38578 4.1948 1.66306 6.51419 0.749596 9.18451C-0.163864 11.8548 -0.222668 14.7434 0.581359 17.4487C1.38539 20.154 3.01229 22.5415 5.23592 24.2795C3.59666 25.5486 2.26973 27.1762 1.35682 29.0375C0.443912 30.8988 -0.0307309 32.9444 -0.0307309 35.0175C-0.0307309 37.0906 0.443912 39.1362 1.35682 40.9975C2.26973 42.8588 3.59666 44.4864 5.23592 45.7555C3.40553 47.1554 1.96254 48.9991 1.04346 51.1122C0.12437 53.2253 -0.24042 55.538 -0.0164064 57.8314C0.207607 60.1248 1.01302 62.3232 2.32363 64.2185C3.63425 66.1138 5.40674 67.6434 7.47341 68.6626C9.54009 69.6819 11.8326 70.157 14.1341 70.043C16.4357 69.9291 18.6701 69.2299 20.626 68.0115C22.5819 66.7932 24.1946 65.096 25.3116 63.0805C26.4287 61.065 27.013 58.7978 27.0094 56.4935V46.242C29.2772 47.8728 32.0002 48.7494 34.7934 48.748C37.6192 48.7413 40.3722 47.851 42.6667 46.2018C44.9613 44.5525 46.6827 42.2269 47.5897 39.5506C48.4967 36.8744 48.544 33.9814 47.7249 31.2769C46.9058 28.5724 45.2614 26.1918 43.0219 24.4685L43.0989 24.2795ZM21.4724 56.4935C21.4724 58.0621 21.0073 59.5955 20.1358 60.8997C19.2643 62.204 18.0257 63.2205 16.5765 63.8208C15.1273 64.4211 13.5326 64.5781 11.9942 64.2721C10.4557 63.9661 9.04253 63.2107 7.93336 62.1016C6.82419 60.9924 6.06883 59.5792 5.76281 58.0408C5.45679 56.5023 5.61385 54.9076 6.21413 53.4584C6.81441 52.0092 7.83095 50.7706 9.13519 49.8991C10.4394 49.0276 11.9728 48.5625 13.5414 48.5625H21.4724V56.4935ZM21.4724 42.9485H13.5414C11.438 42.9485 9.42071 42.1129 7.93336 40.6256C6.44601 39.1382 5.61042 37.1209 5.61042 35.0175C5.61042 32.9141 6.44601 30.8968 7.93336 29.4094C9.42071 27.9221 11.438 27.0865 13.5414 27.0865H21.4724V42.9485ZM21.4724 21.476H13.5414C11.4375 21.476 9.4198 20.6402 7.93212 19.1526C6.44444 17.6649 5.60867 15.6471 5.60867 13.5433C5.60867 11.4394 6.44444 9.42163 7.93212 7.93395C9.4198 6.44627 11.4375 5.6105 13.5414 5.6105H21.4724V21.476ZM34.8669 42.952C32.9987 42.9583 31.1893 42.2987 29.7635 41.0915C28.3376 39.8844 27.3885 38.2087 27.0864 36.365C26.8868 35.4778 26.8868 34.5572 27.0864 33.67C27.3434 32.1787 28.0216 30.7919 29.0409 29.6734C30.0602 28.5548 31.3781 27.751 32.8392 27.3569C34.3003 26.9628 35.8436 26.9947 37.2872 27.4489C38.7307 27.9031 40.0143 28.7607 40.9864 29.9205C41.9586 31.0802 42.5788 32.4938 42.7739 33.9945C42.969 35.4952 42.7309 37.0204 42.0877 38.3902C41.4444 39.76 40.4229 40.9173 39.1435 41.7256C37.8641 42.5338 36.3802 42.9594 34.8669 42.952ZM34.8669 21.476H27.0864V5.6105H34.8669C35.9087 5.6105 36.9402 5.81569 37.9027 6.21434C38.8651 6.613 39.7396 7.19732 40.4762 7.93395C41.2128 8.67057 41.7972 9.54507 42.1958 10.5075C42.5945 11.47 42.7997 12.5015 42.7997 13.5433C42.7997 14.585 42.5945 15.6165 42.1958 16.579C41.7972 17.5414 41.2128 18.4159 40.4762 19.1526C39.7396 19.8892 38.8651 20.4735 37.9027 20.8722C36.9402 21.2708 35.9087 21.476 34.8669 21.476Z" fill="white"/>
</g>
</svg>
