<svg width="20" height="20" viewBox="0 0 20 20" fill="none" xmlns="http://www.w3.org/2000/svg">
<path d="M9.79119 0.0175798C9.92957 -0.00585995 10.0724 -0.00585995 10.2108 0.0175798L19.1385 1.58023C19.6384 1.66618 20 2.05293 20 2.49829C20 2.94365 19.6384 3.3304 19.1385 3.41635L15.7147 4.01797V6.24866C15.7147 9.01064 13.1569 11.2491 10.001 11.2491C6.84506 11.2491 4.28728 9.01064 4.28728 6.24866V4.01797L2.14463 3.64293V6.18615L2.84545 9.24895C2.88563 9.43256 2.83206 9.62399 2.69815 9.76853C2.56423 9.91308 2.3589 9.99902 2.14463 9.99902H0.716202C0.501937 9.99902 0.301065 9.91698 0.162685 9.76853C0.0243063 9.62008 -0.0292598 9.43256 0.0153786 9.24895L0.716202 6.18615V3.38119C0.292137 3.25227 0.0019871 2.90067 0.0019871 2.49829C0.0019871 2.05293 0.363558 1.66618 0.863509 1.58023L9.79119 0.0175798ZM4.99703 12.8001C5.46573 12.6673 5.97014 12.8157 6.3094 13.1321L9.47872 16.0816C9.75995 16.3434 10.2376 16.3434 10.5188 16.0816L13.6881 13.1321C14.0274 12.8157 14.5318 12.6673 15.0005 12.8001C17.902 13.6166 20 15.9918 20 18.8007C20 19.4648 19.384 20 18.6296 20H1.37239C0.617997 20 0.0019871 19.4609 0.0019871 18.8007C0.0019871 15.9918 2.09999 13.6166 4.99703 12.8001Z" fill="white"/>
</svg>
