<svg width="20" height="18" viewBox="0 0 20 18" fill="none" xmlns="http://www.w3.org/2000/svg">
<path d="M3 1.5C3 0.808594 3.44688 0.25 4 0.25H5C5.55312 0.25 6 0.808594 6 1.5V7.75V10.25V16.5C6 17.1914 5.55312 17.75 5 17.75H4C3.44688 17.75 3 17.1914 3 16.5V14H2C1.44687 14 1 13.4414 1 12.75V10.25C0.446875 10.25 0 9.69141 0 9C0 8.30859 0.446875 7.75 1 7.75V5.25C1 4.55859 1.44687 4 2 4H3V1.5ZM17 1.5V4H18C18.5531 4 19 4.55859 19 5.25V7.75C19.5531 7.75 20 8.30859 20 9C20 9.69141 19.5531 10.25 19 10.25V12.75C19 13.4414 18.5531 14 18 14H17V16.5C17 17.1914 16.5531 17.75 16 17.75H15C14.4469 17.75 14 17.1914 14 16.5V10.25V7.75V1.5C14 0.808594 14.4469 0.25 15 0.25H16C16.5531 0.25 17 0.808594 17 1.5ZM13 7.75V10.25H7V7.75H13Z" fill="white"/>
</svg>
