<svg width="30" height="20" viewBox="0 0 30 20" fill="none" xmlns="http://www.w3.org/2000/svg">
<path d="M29.1952 9.39529C27.8695 3.94779 25.8743 1.04026 22.9148 0.246054C22.2927 0.0801724 21.6474 -0.00268858 20.9991 6.65039e-05C20.1421 6.65039e-05 19.3958 0.189811 18.6064 0.390919C17.6551 0.633497 16.5744 0.909025 14.9987 0.909025C13.423 0.909025 12.3417 0.634065 11.3885 0.391487C10.5985 0.189812 9.85279 6.65039e-05 8.99837 6.65039e-05C8.32797 -0.00207574 7.6605 0.0805215 7.01513 0.245485C4.07121 1.03628 2.07734 3.94268 0.732267 9.39188C-0.714066 15.2558 -0.0021503 18.9581 2.72863 19.8171C3.10295 19.937 3.4968 19.9989 3.8937 20C5.76443 20 7.26452 18.5837 8.28958 17.4242C9.44777 16.1119 10.8035 15.4461 14.9987 15.4461C18.7458 15.4461 20.2965 15.908 21.636 17.4242C22.4779 18.3775 23.2736 19.0445 24.0674 19.4643C25.123 20.0222 26.1781 20.146 27.2025 19.8262C28.8164 19.3257 29.7414 18.0026 29.9527 15.8926C30.1133 14.2747 29.8658 12.1494 29.1952 9.39529ZM11.9985 9.08965H9.99842V10.9076C9.99842 11.1486 9.89306 11.3798 9.70551 11.5503C9.51797 11.7208 9.2636 11.8165 8.99837 11.8165C8.73314 11.8165 8.47877 11.7208 8.29122 11.5503C8.10367 11.3798 7.99831 11.1486 7.99831 10.9076V9.08965H5.99819C5.73296 9.08965 5.47859 8.99389 5.29105 8.82343C5.1035 8.65296 4.99814 8.42177 4.99814 8.1807C4.99814 7.93963 5.1035 7.70843 5.29105 7.53797C5.47859 7.3675 5.73296 7.27174 5.99819 7.27174H7.99831V5.45382C7.99831 5.21275 8.10367 4.98155 8.29122 4.81109C8.47877 4.64063 8.73314 4.54486 8.99837 4.54486C9.2636 4.54486 9.51797 4.64063 9.70551 4.81109C9.89306 4.98155 9.99842 5.21275 9.99842 5.45382V7.27174H11.9985C12.2638 7.27174 12.5181 7.3675 12.7057 7.53797C12.8932 7.70843 12.9986 7.93963 12.9986 8.1807C12.9986 8.42177 12.8932 8.65296 12.7057 8.82343C12.5181 8.99389 12.2638 9.08965 11.9985 9.08965ZM17.2488 9.31689C17.0016 9.31689 16.7599 9.25026 16.5543 9.12541C16.3488 9.00056 16.1885 8.82311 16.0939 8.6155C15.9993 8.40789 15.9746 8.17944 16.0228 7.95903C16.071 7.73863 16.1901 7.53618 16.3649 7.37728C16.5397 7.21838 16.7625 7.11017 17.005 7.06633C17.2475 7.02249 17.4988 7.04499 17.7272 7.13099C17.9556 7.21698 18.1509 7.36261 18.2882 7.54946C18.4256 7.73631 18.4989 7.95598 18.4989 8.1807C18.4989 8.48204 18.3672 8.77103 18.1328 8.98411C17.8983 9.19719 17.5804 9.31689 17.2488 9.31689ZM19.999 11.8165C19.7516 11.8165 19.5098 11.7498 19.3042 11.6248C19.0985 11.4999 18.9383 11.3223 18.8438 11.1145C18.7493 10.9067 18.7247 10.6781 18.7732 10.4576C18.8217 10.2371 18.941 10.0347 19.1162 9.87591C19.2913 9.71713 19.5143 9.60914 19.757 9.56562C19.9997 9.5221 20.2512 9.54501 20.4796 9.63144C20.7079 9.71787 20.9029 9.86394 21.0399 10.0512C21.1769 10.2384 21.2497 10.4583 21.2491 10.6832C21.2482 10.984 21.1162 11.2723 20.8818 11.4848C20.6475 11.6972 20.33 11.8165 19.999 11.8165ZM19.999 6.81726C19.7518 6.81726 19.5101 6.75062 19.3045 6.62577C19.0989 6.50093 18.9387 6.32348 18.8441 6.11586C18.7495 5.90825 18.7247 5.6798 18.773 5.4594C18.8212 5.239 18.9402 5.03655 19.1151 4.87765C19.2899 4.71875 19.5126 4.61053 19.7551 4.56669C19.9976 4.52285 20.249 4.54535 20.4774 4.63135C20.7058 4.71735 20.901 4.86297 21.0384 5.04982C21.1758 5.23667 21.2491 5.45634 21.2491 5.68106C21.2491 5.9824 21.1174 6.27139 20.8829 6.48447C20.6485 6.69755 20.3305 6.81726 19.999 6.81726ZM22.7492 9.31689C22.5019 9.31689 22.2602 9.25026 22.0547 9.12541C21.8491 9.00056 21.6889 8.82311 21.5942 8.6155C21.4996 8.40789 21.4749 8.17944 21.5231 7.95903C21.5713 7.73863 21.6904 7.53618 21.8652 7.37728C22.04 7.21838 22.2628 7.11017 22.5053 7.06633C22.7478 7.02249 22.9991 7.04499 23.2275 7.13099C23.456 7.21698 23.6512 7.36261 23.7886 7.54946C23.9259 7.73631 23.9992 7.95598 23.9992 8.1807C23.9992 8.48204 23.8675 8.77103 23.6331 8.98411C23.3987 9.19719 23.0807 9.31689 22.7492 9.31689Z" fill="white"/>
</svg>
