<svg width="84" height="84" viewBox="0 0 84 84" fill="none" xmlns="http://www.w3.org/2000/svg">
<path d="M0 5.25V78.75H84V5.25H0ZM45.7125 62.5734C45.7125 69.7266 40.9125 72.9914 33.9187 72.9914C27.6 72.9914 23.9437 70.1367 22.0687 66.675L28.5 63.2789C29.7375 65.1984 30.8625 66.8227 33.5813 66.8227C36.1688 66.8227 37.8187 65.9367 37.8187 62.475V38.9977H45.7125V62.5734ZM64.3875 72.9914C57.0562 72.9914 52.3125 69.9398 50.0063 65.9367L56.4375 62.6883C58.125 65.1 60.3375 66.8883 64.2188 66.8883C67.4812 66.8883 69.5813 65.4609 69.5813 63.4758C69.5813 61.1133 67.4437 60.2766 63.825 58.882L61.8562 58.1437C56.1562 56.0273 52.3875 53.3531 52.3875 47.7258C52.3875 42.5414 56.9062 38.6039 63.9375 38.6039C68.9625 38.6039 72.5625 40.1297 75.15 44.1328L69 47.5781C67.65 45.4617 66.1875 44.625 63.9187 44.625C61.6125 44.625 60.15 45.9047 60.15 47.5781C60.15 49.6453 61.6125 50.482 65.0063 51.7781L66.975 52.5164C73.6875 55.0266 77.4563 57.6023 77.4563 63.3773C77.4563 69.5789 71.8688 72.9914 64.3875 72.9914Z" fill="white"/>
</svg>
