<svg width="84" height="64" viewBox="0 0 84 64" fill="none" xmlns="http://www.w3.org/2000/svg">
<path d="M57.4175 6.47948C57.015 6.47948 56.742 6.53446 56.4585 6.60907V6.66013H56.5075C56.6965 7.06855 57.0185 7.36701 57.2565 7.73223C57.4455 8.15243 57.6065 8.57263 57.7955 8.98891L57.8445 8.93C58.1735 8.67081 58.3345 8.25454 58.3345 7.62227C58.1945 7.4377 58.1735 7.25312 58.0545 7.07247C57.9145 6.80936 57.6135 6.67976 57.4245 6.47162L57.4175 6.47948ZM20.195 58.2939H16.9505C16.8586 52.5084 16.5433 46.7301 16.0055 40.9753H15.9775L11.0425 58.2939H8.575L3.675 40.9753H3.64C3.25696 46.7391 3.02935 52.5146 2.9575 58.2939H0C0.193667 50.5705 0.672 43.3316 1.435 36.5769H5.46L10.1325 52.5367H10.1605L14.875 36.5769H18.7075C19.5545 44.494 20.0538 51.733 20.2055 58.2939H20.195ZM34.2545 42.2712C32.9315 50.3061 31.1908 56.1444 29.0325 59.7862C27.3455 62.598 25.4987 64.0026 23.492 64C22.96 64 22.2997 63.8193 21.511 63.458V61.5181C21.8983 61.5861 22.3487 61.6202 22.862 61.6202C23.8 61.6202 24.5548 61.3295 25.1265 60.7483C25.8148 60.0415 26.159 59.2495 26.159 58.3724C26.159 57.7624 25.8907 56.5267 25.354 54.6652L21.805 42.2712H24.99L27.5345 51.5392C28.1108 53.6442 28.35 55.1142 28.252 55.9494C29.652 51.7657 30.6262 47.2063 31.1745 42.2712H34.2545ZM77.392 58.2939H68.187V36.5769H71.2845V55.6234H77.392V58.2939ZM65.772 58.824L62.216 56.8605C62.5333 56.5646 62.8308 56.2374 63.1085 55.8787C64.6228 53.889 65.3788 50.9397 65.3765 47.0309C65.3765 39.8443 62.8623 36.2497 57.834 36.247C55.37 36.247 53.445 37.1594 52.059 38.9842C50.5517 40.9792 49.798 43.918 49.798 47.8006C49.7957 51.6204 50.4653 54.4217 51.807 56.2047C53.0297 57.8148 54.8765 58.6198 57.3475 58.6198C58.2715 58.6198 59.1173 58.4916 59.885 58.235L64.5225 61.2667L65.7825 58.824H65.772ZM54.25 53.9466C53.4637 52.5302 53.0705 50.2577 53.0705 47.1291C53.0705 41.6573 54.5522 38.9214 57.5155 38.9214C59.0695 38.9214 60.2093 39.5759 60.935 40.885C61.719 42.3066 62.111 44.5621 62.111 47.6514C62.111 53.1677 60.6293 55.9271 57.666 55.9298C56.1097 55.9298 54.9687 55.2752 54.243 53.9662L54.25 53.9466ZM48.447 52.2775C48.447 54.1259 47.845 55.6392 46.641 56.8173C45.4417 57.9954 43.827 58.5845 41.797 58.5845C39.8965 58.5845 38.073 57.909 36.2915 56.562L37.121 54.6927C38.6517 55.5541 40.04 55.9834 41.286 55.9808C42.448 55.9808 43.3615 55.6928 44.0265 55.1168C44.3597 54.8366 44.6287 54.4714 44.8113 54.0514C44.9939 53.6315 45.0848 53.1688 45.0765 52.7017C45.0765 51.4057 44.2715 50.3061 42.8085 49.3833C41.4505 48.5468 38.738 46.8031 38.738 46.8031C37.261 45.5975 36.526 44.3055 36.526 42.1809C36.526 40.4163 37.0743 38.996 38.171 37.92C39.27 36.8309 40.6933 36.2876 42.441 36.2902C44.2353 36.2902 45.8687 36.8269 47.341 37.9004L46.5955 39.7697C45.4217 39.188 44.1546 38.8807 42.8715 38.8664C41.8798 38.8664 41.1168 39.1361 40.5825 39.6754C40.3134 39.9272 40.0964 40.2417 39.9465 40.5971C39.7967 40.9524 39.7175 41.3401 39.7145 41.7332C39.7145 43.0213 40.5335 44.1288 42.0455 45.0713C43.421 45.9156 46.2 47.7024 46.2 47.7024C47.7155 48.9002 48.468 50.1765 48.468 52.2893L48.447 52.2775ZM81.284 29.296C79.4115 29.2411 77.959 29.4531 76.7445 30.0343C76.3945 30.1914 75.8345 30.1914 75.7855 30.6902C75.978 30.8983 76.006 31.24 76.1705 31.5306C76.4505 32.0568 76.9335 32.7598 77.3815 33.1289C77.8668 33.5661 78.365 33.9719 78.876 34.3463C79.786 34.9747 80.8185 35.3477 81.711 35.98C82.2185 36.3491 82.7365 36.8165 83.251 37.2092C83.5065 37.4055 83.671 37.759 84 37.8846V37.8061C83.839 37.5705 83.79 37.2288 83.6325 36.9657C83.398 36.7026 83.1635 36.467 82.9325 36.2078C82.2463 35.1908 81.426 34.2969 80.5 33.557C79.751 32.9836 78.113 32.1825 77.805 31.2203L77.7595 31.1653C78.2705 31.1143 78.8795 30.9062 79.3695 30.7491C80.164 30.5134 80.892 30.5645 81.7145 30.3328C82.0878 30.2228 82.4612 30.0998 82.8345 29.9637V29.728C82.4145 29.2568 82.0995 28.6166 81.6655 28.1768C80.4529 26.9903 79.1612 25.9098 77.8015 24.9448C77.0665 24.4186 76.1355 24.0808 75.362 23.6331C75.082 23.4761 74.613 23.3975 74.452 23.1344C74.032 22.561 73.787 21.7992 73.4895 21.1159C72.8031 19.6195 72.1645 18.0961 71.575 16.5486C71.155 15.5197 70.8995 14.4947 70.385 13.5522C67.97 9.08709 65.3555 6.3813 61.334 3.73442C60.4695 3.18463 59.4335 2.949 58.338 2.65839C57.7535 2.62697 57.169 2.57985 56.588 2.55236C56.203 2.36778 55.832 1.86904 55.503 1.62949C54.173 0.686978 50.729 -1.35512 49.749 1.34673C49.119 3.0511 50.6835 4.73191 51.226 5.59588C51.6285 6.19673 52.136 6.88397 52.416 7.55944C52.5805 8.01498 52.626 8.48231 52.7905 8.95749C53.1615 10.1121 53.515 11.4002 54.005 12.4801C54.2605 13.0299 54.5405 13.6072 54.8695 14.102C55.0585 14.3887 55.3805 14.5222 55.454 14.9935C55.125 15.5276 55.104 16.3051 54.915 16.957C54.075 19.9299 54.404 23.6056 55.594 25.793C55.9685 26.445 56.861 27.8901 58.0545 27.3364C59.1045 26.8652 58.8735 25.3729 59.1745 24.0573C59.2445 23.7431 59.199 23.535 59.3425 23.3229V23.3818C59.6715 24.1201 60.0005 24.8231 60.3015 25.5613C61.0225 26.8494 62.2825 28.1847 63.336 29.0761C63.896 29.5474 64.3405 30.3642 65.0405 30.6548V30.5763H64.988C64.8375 30.3485 64.638 30.2385 64.449 30.054C64.0058 29.566 63.5963 29.0408 63.224 28.4831C62.2409 26.969 61.3666 25.3695 60.6095 23.6999C60.2245 22.8752 59.9025 21.9877 59.5945 21.1748C59.4545 20.8606 59.4545 20.3893 59.22 20.2323C58.87 20.8056 58.3555 21.3044 58.1 22.0112C57.6555 23.1422 57.61 24.5324 57.442 25.9776C57.3475 26.0051 57.393 25.9776 57.3475 26.0326C56.5985 25.8284 56.343 24.9566 56.063 24.2261C55.363 22.3608 55.2475 19.3644 55.853 17.2162C56.0175 16.6664 56.7175 14.9306 56.4375 14.4044C56.2905 13.9057 55.8285 13.619 55.573 13.2145C55.2448 12.6877 54.9634 12.1261 54.733 11.5376C54.173 10.0689 53.893 8.44304 53.284 6.9743C53.004 6.2949 52.514 5.5841 52.115 4.95968C51.6705 4.2528 51.1805 3.75406 50.827 2.91758C50.7115 2.6309 50.547 2.15572 50.7325 1.84155C50.7815 1.62949 50.8795 1.54702 51.0615 1.48811C51.3695 1.20536 52.234 1.57451 52.5385 1.73159C53.403 2.1243 54.131 2.49345 54.8555 3.04325C55.1845 3.30244 55.538 3.80118 55.958 3.93078H56.448C57.197 4.11535 58.0405 3.98576 58.7405 4.21746C59.983 4.66515 61.103 5.31705 62.1075 6.02393C65.203 8.24199 67.7206 11.3392 69.405 15.0013C69.685 15.6061 69.8075 16.1598 70.063 16.7882C70.553 18.0841 71.1585 19.3918 71.6555 20.6446C72.1455 21.8816 72.618 23.1422 73.3215 24.1672C73.6715 24.717 75.0785 25.0037 75.7085 25.2904C76.174 25.526 76.8985 25.742 77.3185 26.0287C78.1235 26.5785 78.9075 27.2068 79.6635 27.8116C80.0485 28.1101 81.214 28.7659 81.284 29.296Z" fill="white"/>
</svg>
