<svg width="84" height="84" viewBox="0 0 84 84" fill="none" xmlns="http://www.w3.org/2000/svg">
<path d="M42 53.8486C48.0236 58.6517 53.9646 61.493 58.7505 61.493C60.3183 61.493 61.8035 61.2224 63.0413 60.6135C67.332 58.5841 68.8998 53.5104 67.4145 46.2719C67.167 44.9866 66.8369 43.7013 66.4244 42.3483C68.0747 41.9424 69.5599 41.5365 71.0452 41.1306C79.3792 38.4923 84 34.8393 84 30.848C84 26.789 79.3792 23.136 71.0452 20.5653C69.5599 20.0918 68.0747 19.6859 66.4244 19.3476C66.8369 17.9946 67.167 16.7093 67.4145 15.424C68.8173 8.05024 67.2495 2.90891 62.9587 0.879438C61.721 0.270596 60.2358 0 58.668 0C53.9646 0 47.9411 2.84126 41.9175 7.64434C35.9764 2.84126 30.0354 0 25.2495 0C23.6817 0 22.1965 0.270596 20.9587 0.879438C16.668 2.90891 15.1002 7.98259 16.5855 15.221C16.833 16.5064 17.1631 17.7917 17.5756 19.1447C15.9253 19.5506 14.4401 19.9565 12.9548 20.3624C4.62082 23.0007 0 26.6537 0 30.645C0 34.704 4.62082 38.357 12.9548 40.9277C14.4401 41.4012 15.9253 41.8071 17.5756 42.1454C17.1631 43.4983 16.833 44.7837 16.5855 46.069C15.1827 53.3074 16.7505 58.4488 20.9587 60.4106C22.1965 61.0194 23.6817 61.29 25.2495 61.29C30.0354 61.4253 35.9764 58.5841 42 53.8486ZM37.3792 44.716C38.8644 44.7837 40.4322 44.7837 42 44.7837C43.5678 44.7837 45.1356 44.7837 46.6208 44.716C45.1356 46.3396 43.5678 47.8279 42 49.2485C40.4322 47.8279 38.8644 46.3396 37.3792 44.716ZM27.1473 37.7482C27.9725 38.8982 28.7151 39.9806 29.6228 41.063C27.0648 40.7924 24.6719 40.4541 22.3615 40.0482C23.1041 38.2217 23.9293 36.3275 24.9194 34.4334C25.5796 35.5158 26.3222 36.6658 27.1473 37.7482ZM22.3615 21.4447C24.6719 21.0389 27.0648 20.7006 29.6228 20.43C28.7976 21.5124 27.9725 22.5948 27.1473 23.7448C26.3222 24.8949 25.5796 25.9772 24.9194 27.1273C23.8468 25.1654 23.0216 23.2713 22.3615 21.4447ZM26.8998 30.7127C27.9725 28.8861 29.1277 27.0596 30.4479 25.2331C31.6857 23.4742 33.0884 21.7153 34.4912 19.9565C36.9666 19.8212 39.442 19.7535 42 19.7535C44.6405 19.7535 47.1159 19.8212 49.5088 19.9565C50.9941 21.7153 52.3143 23.4742 53.5521 25.2331C54.8723 27.0596 56.0275 28.8861 57.1002 30.7127C56.0275 32.5392 54.8723 34.3657 53.5521 36.1922C52.3143 37.9511 50.9116 39.71 49.5088 41.4689C47.0334 41.6042 44.558 41.6718 42 41.6718C39.3595 41.6718 36.8841 41.6042 34.4912 41.4689C33.0059 39.71 31.6857 37.9511 30.4479 36.1922C29.1277 34.3657 27.9725 32.5392 26.8998 30.7127ZM59.1631 27.0596L56.9352 23.6772C56.11 22.5271 55.3674 21.4447 54.4597 20.3624C57.0177 20.633 59.4106 20.9712 61.721 21.3771C60.9784 23.2713 60.1532 25.1654 59.1631 27.0596ZM59.1631 34.3657C60.1532 36.2599 60.9784 38.1541 61.721 39.9806C59.4106 40.3865 57.0177 40.7247 54.4597 40.9953C55.2849 39.9129 56.11 38.8306 56.9352 37.6805C57.6778 36.6658 58.4204 35.5158 59.1631 34.3657ZM61.0609 57.8399C60.4008 58.1782 59.5756 58.3135 58.668 58.3135C54.6248 58.3135 49.5914 55.6075 44.6405 51.5486C47.0334 49.4515 49.3438 47.0837 51.6542 44.4454C55.5324 44.1748 59.2456 43.7013 62.7112 43.0248C63.1238 44.2425 63.3713 45.4602 63.6189 46.6778C64.7741 52.428 63.8664 56.5546 61.0609 57.8399ZM65.3517 22.1889C74.5933 24.3537 80.1218 27.6685 80.1218 30.7127C80.1218 33.351 76.3261 35.9893 69.6424 38.0864C68.3222 38.4923 66.8369 38.8982 65.3517 39.2364C64.279 36.4628 62.9587 33.6216 61.3084 30.7127C62.9587 27.8038 64.3615 24.9625 65.3517 22.1889ZM58.7505 3.11186C59.6582 3.11186 60.4008 3.24715 61.1434 3.5854C63.8664 4.87073 64.8566 8.92967 63.7014 14.7475C63.4538 15.8975 63.1238 17.1152 62.7937 18.4005C59.3281 17.7917 55.6149 17.3182 51.7367 16.9799C49.5088 14.3416 47.1159 11.9739 44.723 9.87676C49.6739 5.88547 54.7073 3.11186 58.7505 3.11186ZM46.6208 16.7093C45.1356 16.6417 43.5678 16.6417 42 16.6417C40.4322 16.6417 38.8644 16.6417 37.3792 16.7093C38.8644 15.0857 40.4322 13.5975 42 12.1768C43.5678 13.5975 45.1356 15.1534 46.6208 16.7093ZM22.9391 3.5854C23.5992 3.24715 24.4244 3.11186 25.332 3.11186C29.3752 3.11186 34.4086 5.81782 39.3595 9.87676C36.9666 11.9739 34.6562 14.3416 32.3458 16.9799C28.4676 17.2505 24.7544 17.7241 21.2888 18.4005C20.8762 17.1829 20.6287 15.9652 20.3811 14.7475C19.2259 8.99732 20.1336 4.93838 22.9391 3.5854ZM18.6483 39.2364C9.40668 37.0717 3.87819 33.7569 3.87819 30.7127C3.87819 28.0744 7.67387 25.436 14.3576 23.3389C15.6778 22.933 17.1631 22.5271 18.6483 22.1889C19.721 24.9625 21.0413 27.8038 22.6915 30.7127C21.0413 33.6216 19.6385 36.5305 18.6483 39.2364ZM20.3811 46.6778C20.6287 45.5278 20.9587 44.3101 21.2888 43.0248C24.7544 43.6336 28.4676 44.1072 32.3458 44.4454C34.5737 47.0837 36.9666 49.4515 39.3595 51.5486C34.4086 55.5399 29.3752 58.3135 25.332 58.3135C24.4244 58.3135 23.6817 58.1782 22.9391 57.8399C20.1336 56.5546 19.2259 52.428 20.3811 46.6778ZM16.9155 74.5493C18.7308 72.7227 18.8134 70.6933 17.8232 68.6638C16.833 66.6343 14.7701 65.6872 12.2122 65.6196C9.15913 65.5519 6.02358 65.6196 2.97053 65.6196H2.39293V83.1407H4.86837V76.5111H8.74656C9.24165 76.5111 9.65422 76.6464 9.90177 76.9846L14.8527 83.276C14.9352 83.4113 15.1827 83.6142 15.3477 83.6142H18.5658C16.5855 81.1112 14.6876 78.7435 12.7073 76.3081C14.4401 76.1052 15.9253 75.6316 16.9155 74.5493ZM4.86837 74.414V67.7167H5.77603C7.67387 67.7167 9.65422 67.649 11.5521 67.7843C13.78 67.852 15.3477 69.2726 15.3477 71.0992C15.3477 72.9257 13.5324 74.3463 11.3045 74.414C9.32416 74.4816 7.34381 74.414 4.86837 74.414ZM36.8016 75.2934C35.4813 70.558 30.2004 69.3403 26.1572 70.8286C23.0216 71.9786 21.6189 74.211 21.5363 76.9846C21.4538 79.0817 22.1965 80.9759 24.1768 82.3965C26.4047 84.0201 29.1277 84.2231 31.9332 83.8172C33.501 83.5466 34.9037 82.9377 35.9764 81.9906C35.5639 81.5171 35.1513 81.0436 34.7387 80.6377C32.4283 82.2612 29.8703 82.8024 27.0648 81.7201C25.2495 80.9759 24.3418 79.1494 24.1768 77.7964H36.9666V76.917C37.0491 76.3081 36.9666 75.7669 36.8016 75.2934ZM24.3418 76.3758C24.0943 74.3463 26.5697 72.1815 29.2927 72.1815C32.4283 72.1139 34.4086 73.6698 34.4912 76.3758H24.3418ZM49.6739 70.4903C48.4362 70.2874 47.1159 70.2197 45.8782 70.2874C43.8978 70.4227 42.165 71.1668 40.7623 72.3845C41.1749 72.858 41.5049 73.3316 42 73.8728C42.165 73.7375 42.3301 73.6022 42.4951 73.5345C43.8153 72.5198 45.3831 71.9786 47.2809 72.1139C48.7662 72.1815 50.169 72.5874 50.5815 73.8051C50.9116 74.7522 50.8291 75.7669 50.9116 76.7817C50.6641 76.7817 50.5815 76.714 50.499 76.6464C48.5187 75.2934 46.2908 75.0228 43.8978 75.4963C41.6699 75.9699 40.2672 77.3905 40.1022 79.217C39.9371 81.3142 41.0923 82.8701 43.3202 83.6142C44.723 84.0878 46.2908 84.0878 47.776 83.8172C48.9312 83.6142 49.4263 83.073 51.0766 82.3289V83.2083H53.387C53.387 80.5024 53.4696 77.1876 53.387 74.0757C53.387 72.1139 51.9843 70.8962 49.6739 70.4903ZM50.8291 79.0141C50.7466 79.217 50.8291 79.42 50.8291 79.6229C50.8291 81.0436 50.4165 81.5171 48.7662 82.0583C47.611 82.3965 46.3733 82.5318 45.1356 82.1936C43.7328 81.8553 42.7426 80.8406 42.7426 79.6906C42.6601 78.5406 43.5678 77.3905 44.9705 77.0523C46.8684 76.5111 48.6012 76.8493 50.169 77.7964C50.664 78.1347 50.9941 78.4729 50.8291 79.0141ZM63.7014 72.3168C65.8468 71.7756 67.8271 72.1139 69.3124 73.6022L69.5599 73.7375C70.1375 73.3316 70.6326 72.9257 71.2927 72.4521C71.0452 72.2492 70.9627 72.1139 70.7976 71.9109C68.4047 69.8138 63.7014 69.5432 60.8134 71.2345C56.7701 73.6698 56.8527 78.4052 58.833 80.9083C60.7308 83.276 63.4538 84.0878 66.6719 83.7495C68.5697 83.5466 70.1375 82.8024 71.3752 81.5171C70.7976 81.1112 70.22 80.7053 69.6424 80.2318C69.4774 80.3671 69.3949 80.4347 69.3124 80.57C67.0845 82.5995 63.3713 82.3965 61.391 80.2318C60.2358 78.9464 59.9882 77.4582 60.3183 75.9699C60.4833 74.2787 61.556 72.9257 63.7014 72.3168ZM80.8644 81.5171C80.6994 81.5848 80.6169 81.6524 80.6169 81.6524C79.9568 82.0583 79.2967 82.1259 78.554 81.923C77.8114 81.6524 77.7289 81.1112 77.6464 80.57V72.858C77.6464 72.7227 77.6464 72.9933 77.7289 72.3168H80.8644V70.2874H77.5639V66.9049H75.0884V70.558H72.943C72.778 70.558 72.5304 70.6933 72.5304 70.8286C72.4479 71.3021 72.5304 71.6403 72.5304 72.3168H75.1709V80.9759C75.1709 82.0583 75.501 83.0054 76.6562 83.5466C77.8939 84.1554 80.2868 84.0201 81.3595 83.276C81.5246 83.2083 81.6071 82.9377 81.6071 82.8701C81.3595 82.4642 81.112 81.9906 80.8644 81.5171Z" fill="white"/>
</svg>
