<svg width="84" height="64" viewBox="0 0 84 64" fill="none" xmlns="http://www.w3.org/2000/svg">
<path d="M42 0C30.8 0 23.8 7.11111 21 21.3333C25.2 14.2222 30.1 11.5556 35.7 13.3333C38.8941 14.3462 41.1776 17.2908 43.7047 20.549C47.8271 25.8599 52.5882 32 63 32C74.2 32 81.2 24.8889 84 10.6667C79.8 17.7778 74.9 20.4444 69.3 18.6667C66.1024 17.6538 63.8224 14.7092 61.2882 11.451C57.1765 6.14006 52.4118 0 42 0ZM21 32C9.8 32 2.8 39.1111 0 53.3333C4.2 46.2222 9.1 43.5556 14.7 45.3333C17.8941 46.3462 20.1776 49.2908 22.7082 52.549C26.8235 57.8599 31.5882 64 42 64C53.2 64 60.2 56.8889 63 42.6667C58.8 49.7778 53.9 52.4444 48.3 50.6667C45.1024 49.6538 42.8224 46.7092 40.2882 43.451C36.1765 38.1401 31.4118 32 21 32Z" fill="white"/>
</svg>
